<svg width="16" height="16" viewBox="0 0 16 16" fill="none" xmlns="http://www.w3.org/2000/svg">
<g clip-path="url(#clip0_101_3)">
<rect width="16" height="16" fill="#FFCBCC"/>
<path d="M4.67008 13V3.2H8.31708C8.84441 3.2 9.32274 3.30967 9.75208 3.529C10.1814 3.74367 10.5197 4.05167 10.7671 4.453C11.0191 4.85433 11.1451 5.32567 11.1451 5.867C11.1451 6.08633 11.1147 6.31267 11.0541 6.546C10.9981 6.77933 10.9001 6.994 10.7601 7.19C10.6247 7.386 10.4381 7.53533 10.2001 7.638C10.5081 7.71267 10.7554 7.85267 10.9421 8.058C11.1287 8.25867 11.2711 8.492 11.3691 8.758C11.4671 9.01933 11.5324 9.28767 11.5651 9.563C11.5977 9.83833 11.6141 10.088 11.6141 10.312C11.6141 10.816 11.4834 11.271 11.2221 11.677C10.9607 12.083 10.6084 12.405 10.1651 12.643C9.72641 12.881 9.24108 13 8.70908 13H4.67008ZM6.60208 11.355H8.50608C8.76275 11.355 8.99608 11.2943 9.20608 11.173C9.41608 11.047 9.58408 10.8767 9.71008 10.662C9.83608 10.4427 9.89908 10.1953 9.89908 9.92C9.89908 9.68667 9.83608 9.465 9.71008 9.255C9.58408 9.045 9.41608 8.87467 9.20608 8.744C8.99608 8.60867 8.76275 8.541 8.50608 8.541H6.60208V11.355ZM6.60208 6.931H8.09308C8.40108 6.931 8.66474 6.83067 8.88408 6.63C9.10341 6.42933 9.21308 6.17033 9.21308 5.853C9.21308 5.52633 9.10341 5.279 8.88408 5.111C8.66474 4.93833 8.40108 4.852 8.09308 4.852H6.60208V6.931Z" fill="#401428"/>
</g>
<defs>
<clipPath id="clip0_101_3">
<rect width="16" height="16" fill="white"/>
</clipPath>
</defs>
</svg>
