<?xml version="1.0" standalone="no"?>
<!DOCTYPE svg PUBLIC "-//W3C//DTD SVG 20010904//EN"
 "http://www.w3.org/TR/2001/REC-SVG-20010904/DTD/svg10.dtd">
<svg version="1.0" xmlns="http://www.w3.org/2000/svg"
 width="700.000000pt" height="700.000000pt" viewBox="0 0 700.000000 700.000000"
 preserveAspectRatio="xMidYMid meet">
<metadata>
Created by potrace 1.14, written by Peter Selinger 2001-2017
</metadata>
<g transform="translate(0.000000,700.000000) scale(0.100000,-0.100000)"
fill="#000000" stroke="none">
<path d="M2042 3458 l3 -2143 895 -3 c950 -3 1040 0 1210 43 346 87 645 316
805 618 98 183 130 345 121 602 -6 182 -23 315 -57 447 -82 322 -261 545 -498
618 l-54 17 55 31 c243 139 376 469 347 857 -11 153 -48 288 -114 420 -172
347 -510 572 -940 624 -59 7 -382 11 -933 11 l-842 0 2 -2142z m1679 1394
c134 -44 240 -136 281 -244 25 -67 34 -195 19 -270 -35 -169 -172 -307 -348
-353 -46 -12 -131 -15 -420 -15 l-363 0 0 456 0 455 383 -3 c361 -4 386 -5
448 -26z m143 -1607 c164 -43 330 -181 404 -336 46 -97 62 -162 62 -257 -1
-268 -168 -506 -415 -589 l-80 -27 -472 -4 -473 -3 0 615 0 616 458 0 c378 0
468 -3 516 -15z"/>
</g>
</svg>
